<?xml version="1.0" standalone="no"?><svg xmlns="http://www.w3.org/2000/svg" viewBox="0 0 1440 320"><path fill="#56cd62" fill-opacity="1" d="M0,96L34.3,96C68.6,96,137,96,206,117.3C274.3,139,343,181,411,176C480,171,549,117,617,117.3C685.7,117,754,171,823,170.7C891.4,171,960,117,1029,122.7C1097.1,128,1166,192,1234,192C1302.9,192,1371,128,1406,96L1440,64L1440,0L1405.7,0C1371.4,0,1303,0,1234,0C1165.7,0,1097,0,1029,0C960,0,891,0,823,0C754.3,0,686,0,617,0C548.6,0,480,0,411,0C342.9,0,274,0,206,0C137.1,0,69,0,34,0L0,0Z"></path></svg>